<?xml version="1.0" encoding="utf-8"?>
<!-- Generator: Adobe Illustrator 24.3.0, SVG Export Plug-In . SVG Version: 6.00 Build 0)  -->
<svg version="1.1" id="Calque_1" xmlns="http://www.w3.org/2000/svg" xmlns:xlink="http://www.w3.org/1999/xlink" x="0px" y="0px"
	 viewBox="0 0 400 200" style="enable-background:new 0 0 400 200;" xml:space="preserve">
<style type="text/css">
	.st0{opacity:0.15;}
	.st1{fill:#474747;}
	.st2{fill:#D2DDE1;}
	.st3{fill:#E7EFF1;}
	.st4{fill:#BCC6C9;}
	.st5{fill:#9ACF8D;}
	.st6{opacity:0.6;fill:#6FD5DA;enable-background:new    ;}
	.st7{opacity:0.4;fill:#6FD5DA;enable-background:new    ;}
	.st8{opacity:0.2;}
</style>
<g>
	<g id="Layer_1">
		<g class="st0">
			<path class="st1" d="M630.7,468.9H270c-25.7,0-45.8-37.8-45.8-86.2v-534.4c0-2.5,2-4.5,4.5-4.5s4.5,2,4.5,4.5v534.4
				c0,41.9,16.9,77.2,36.9,77.2h360.7c20,0,36.9-35.4,36.9-77.2v-680.3c0-2.5,2-4.5,4.5-4.5s4.5,2,4.5,4.5v680.3
				C676.5,431,656.4,468.9,630.7,468.9z"/>
			<path class="st1" d="M749.5,468.9h-985.8c-2.5,0-4.5-2-4.5-4.5c0-2.5,2-4.5,4.5-4.5h985.8c2.5,0,4.5,2,4.5,4.5
				C754,466.9,752,468.9,749.5,468.9z"/>
			<path class="st1" d="M672.1,30H228.6c-2.5,0-4.5-2-4.5-4.5s2-4.5,4.5-4.5h443.4c2.5,0,4.5,2,4.5,4.5S674.5,30,672.1,30z"/>
			<path class="st1" d="M672.1,347H228.6c-2.5,0-4.5-2-4.5-4.5c0-2.5,2-4.5,4.5-4.5h443.4c2.5,0,4.5,2,4.5,4.5
				C676.5,345,674.5,347,672.1,347z"/>
			<path class="st1" d="M623,326.9h-30.3c-11.4,0-20.7-9.3-20.7-20.7V73.6c0-11.4,9.3-20.7,20.7-20.7H623c11.4,0,20.7,9.3,20.7,20.7
				v232.6C643.7,317.6,634.5,326.9,623,326.9z M592.8,61.8c-6.5,0-11.8,5.3-11.8,11.8v232.6c0,6.5,5.3,11.8,11.8,11.8H623
				c6.5,0,11.8-5.3,11.8-11.8V73.6c0-6.5-5.3-11.8-11.8-11.8L592.8,61.8z"/>
			<path class="st1" d="M535.1,326.9h-30.3c-11.4,0-20.7-9.3-20.7-20.7V73.6c0-11.4,9.3-20.7,20.7-20.7h30.3
				c11.4,0,20.7,9.3,20.7,20.7v232.6C555.8,317.6,546.5,326.9,535.1,326.9z M504.8,61.8c-6.5,0-11.8,5.3-11.8,11.8v232.6
				c0,6.5,5.3,11.8,11.8,11.8h30.3c6.5,0,11.8-5.3,11.8-11.8V73.6c0-6.5-5.3-11.8-11.8-11.8L504.8,61.8z"/>
			<path class="st1" d="M623,9.7h-30.3C581.3,9.7,572,0.4,572-11v-232.6c0-11.4,9.3-20.7,20.7-20.7H623c11.4,0,20.7,9.3,20.7,20.7
				V-11C643.7,0.4,634.5,9.7,623,9.7z M592.8-255.4c-6.5,0-11.8,5.3-11.8,11.8V-11c0,6.5,5.3,11.8,11.8,11.8H623
				c6.5,0,11.8-5.3,11.8-11.8v-232.6c0-6.5-5.3-11.8-11.8-11.8L592.8-255.4z"/>
			<path class="st1" d="M538.2,9.7H305.6c-11.4,0-20.7-9.3-20.7-20.7v-30.3c0-11.4,9.3-20.7,20.7-20.7h232.6
				c11.4,0,20.7,9.3,20.7,20.7V-11C558.9,0.4,549.6,9.7,538.2,9.7z M305.6-53.1c-6.5,0-11.8,5.3-11.8,11.8V-11
				c0,6.5,5.3,11.8,11.8,11.8h232.6c6.5,0,11.8-5.3,11.8-11.8v-30.3c0-6.5-5.3-11.8-11.8-11.8L305.6-53.1z"/>
			<path class="st1" d="M538.2-70.5H320c-11.4,0-20.7-9.3-20.7-20.7v-19.8c0-11.4,9.3-20.7,20.7-20.7h218.2
				c11.4,0,20.7,9.3,20.7,20.7v19.8C558.9-79.8,549.6-70.5,538.2-70.5z M320-122.8c-6.5,0-11.8,5.3-11.8,11.8v19.8
				c0,6.5,5.3,11.8,11.8,11.8h218.2c6.5,0,11.8-5.3,11.8-11.8v-19.8c0-6.5-5.3-11.8-11.8-11.8H320z"/>
			<path class="st1" d="M378.5,323.6c-2.1,0-4.1-0.4-6-1.2l-20.6-8.6c-8-3.3-11.8-12.5-8.4-20.5c0,0,0,0,0,0l75.2-180.5
				c3.3-8,12.5-11.8,20.5-8.4l20.6,8.6c8,3.3,11.8,12.5,8.4,20.5L393,314C390.5,319.8,384.8,323.6,378.5,323.6z M433.1,112.1
				c-2.7,0-5.2,1.6-6.2,4.1l-75.2,180.5c-1.4,3.4,0.2,7.4,3.6,8.8l20.6,8.6l0,0c3.4,1.4,7.4-0.2,8.8-3.6l75.2-180.5
				c1.4-3.4-0.2-7.4-3.6-8.8l-20.6-8.6C434.9,112.3,434,112.1,433.1,112.1z"/>
			<path class="st1" d="M-201,97.6h-118.2c-2.5,0-4.5-2-4.5-4.5s2-4.5,4.5-4.5h113.7V40h-113.7c-2.5,0-4.5-2-4.5-4.5s2-4.5,4.5-4.5
				H-201c2.5,0,4.5,2,4.5,4.5v57.6C-196.5,95.6-198.5,97.6-201,97.6z"/>
			<path class="st1" d="M-82.8,97.6H-201c-2.5,0-4.5-2-4.5-4.5s2-4.5,4.5-4.5h118.2c2.5,0,4.5,2,4.5,4.5S-80.4,97.6-82.8,97.6z"/>
			<path class="st1" d="M-155.7,40H-201c-2.5,0-4.5-2-4.5-4.5s2-4.5,4.5-4.5h45.2c2.5,0,4.5,2,4.5,4.5S-153.3,40-155.7,40z"/>
			<path class="st1" d="M-141.9,155.2h-118.2c-2.5,0-4.5-2-4.5-4.5V93.1c0-2.5,2-4.5,4.5-4.5h118.2c2.5,0,4.5,2,4.5,4.5v57.6
				C-137.4,153.2-139.4,155.2-141.9,155.2z M-255.6,146.3h109.2V97.6h-109.2V146.3z"/>
			<path class="st1" d="M-201,213.1h-38.2c-2.5,0-4.5-2-4.5-4.5s2-4.5,4.5-4.5h33.8v-48.7h-95.3c-2.5,0-4.5-2-4.5-4.5s2-4.5,4.5-4.5
				h99.8c2.5,0,4.5,2,4.5,4.5v57.6C-196.5,211.1-198.5,213.1-201,213.1L-201,213.1z"/>
			<path class="st1" d="M-82.8,213.1H-201c-2.5,0-4.5-2-4.5-4.5V151c0-2.5,2-4.5,4.5-4.5h118.2c2.5,0,4.5,2,4.5,4.5v57.6
				C-78.4,211.1-80.4,213.1-82.8,213.1z M-196.5,204.1h109.2v-48.7h-109.2L-196.5,204.1z"/>
			<path class="st1" d="M108.8-27.2H-74.6c-2.5,0-4.5-2-4.5-4.5v-148.6c0-2.5,2-4.5,4.5-4.5h183.4c2.5,0,4.5,2,4.5,4.5v148.6
				C113.3-29.2,111.3-27.2,108.8-27.2z M-70.1-36.2h174.4v-139.7H-70.1V-36.2z"/>
			<path class="st1" d="M-49.3-61.6c-2.5,0-4.5-2-4.5-4.5c0-0.9,0.3-1.8,0.8-2.5l33.6-48.6c0.8-1.2,2.1-1.9,3.5-1.9
				c1.4-0.1,2.8,0.6,3.6,1.7l34.7,43.1c1.5,1.9,1.2,4.7-0.7,6.3c-1.9,1.5-4.7,1.2-6.2-0.7l-31-38.4l-30.2,43.7
				C-46.4-62.4-47.8-61.6-49.3-61.6z"/>
			<path class="st1" d="M86.5-61.6c-1.7,0-3.2-1-4-2.5l-30.5-61.4L9.4-84.3c-1.8,1.7-4.6,1.7-6.3,0c-1.7-1.8-1.7-4.6,0-6.3
				c0,0,0,0,0.1-0.1l46.9-45.5c1.8-1.7,4.6-1.7,6.3,0.1c0.3,0.3,0.6,0.7,0.8,1.1l33.3,66.9c1.1,2.2,0.2,4.9-2,6
				C87.9-61.8,87.2-61.6,86.5-61.6L86.5-61.6z"/>
			<path class="st1" d="M-5.9-98.2c-2.5,0-4.5-2-4.5-4.5c0-0.5,0.1-1,0.2-1.4c3.8-11.6,16.3-17.9,27.9-14c5,1.7,9.3,5.1,12,9.6
				c1.3,2.1,0.6,4.9-1.5,6.1c-2.1,1.3-4.9,0.6-6.1-1.5l0,0c-3.7-6.2-11.8-8.3-18-4.5c-2.7,1.6-4.8,4.2-5.7,7.2
				C-2.3-99.4-4-98.2-5.9-98.2z"/>
		</g>
		<path class="st2" d="M164.9,275.8l6.6-13.4l14.4,4l6.6-13.4l14.4,4l6.6-13.4l14.4,4l6.6-13.4l14.4,4l6.6-13.4l14.4,4l6.6-13.4
			l14.4,3.9l6.6-13.4l14.4,4l6.6-13.4l14.4,4L339,187l14.4,3.9l6.6-13.4l14.4,3.9l6.6-13.4l-8.6-11.7c-10.6-14.3-29.6-19.3-45.8-12
			l-190.3,85.7L164.9,275.8z"/>
		<path class="st1" d="M164.9,280.3c-1.5,0-3-0.8-3.8-2.1l-28.8-45.7c-1.3-2.1-0.7-4.8,1.4-6.2c0.2-0.1,0.4-0.2,0.6-0.3l190.4-85.7
			c18.1-8.1,39.4-2.5,51.3,13.4l8.6,11.7c1,1.3,1.2,3.1,0.4,4.6l-6.6,13.4c-0.9,1.9-3.1,2.9-5.2,2.3l-10.8-3l-4.9,10.1
			c-0.9,1.9-3.1,2.9-5.2,2.3l-10.8-3l-4.9,10.1c-0.9,1.9-3.1,2.9-5.2,2.3l-10.8-3l-4.9,10.1c-0.9,1.9-3.1,2.9-5.2,2.3l-10.8-3
			l-4.9,10.1c-0.9,1.9-3.1,2.9-5.2,2.3l-10.8-3l-4.9,10.1c-0.9,1.9-3.1,2.9-5.2,2.3l-10.8-3l-4.9,10.1c-0.9,1.9-3.1,2.9-5.2,2.3
			l-10.8-3l-4.9,10.1c-0.9,1.9-3.1,2.9-5.2,2.3l-10.8-3l-4.9,10.1c-0.9,1.9-3.1,2.9-5.2,2.3l-10.8-3l-4.9,10.1
			c-0.9,1.9-3.1,2.9-5.2,2.3l-10.8-3l-4.9,10.1c-0.7,1.5-2.2,2.4-3.8,2.5C165.1,280.3,165,280.3,164.9,280.3z M142.6,232.1
			l21.8,34.5l3-6.2c0.9-1.9,3.1-2.9,5.2-2.3l10.8,3l4.9-10.1c0.9-1.9,3.1-2.9,5.2-2.3l10.8,3l4.9-10.1c0.9-1.9,3.1-2.9,5.2-2.3
			l10.8,3l4.9-10.1c0.9-1.9,3.1-2.9,5.2-2.3l10.8,3l4.9-10.1c0.9-1.9,3.1-2.9,5.2-2.3l10.8,3l4.9-10.1c0.9-1.9,3.1-2.9,5.2-2.3
			l10.8,3l4.9-10.1c0.9-1.9,3.1-2.9,5.2-2.3l10.8,3l4.9-10.1c0.9-1.9,3.1-2.9,5.2-2.3l10.8,3L335,185c0.9-1.9,3.1-2.9,5.2-2.3
			l10.8,3l4.9-10.1c0.9-1.9,3.1-2.9,5.2-2.3l10.8,3l3.8-7.7l-7-9.5c-9.3-12.5-26.1-16.9-40.4-10.6L142.6,232.1z"/>
		<path class="st2" d="M71.7,327.7L-39.4,350L-132-111.6l0,0C-69.6-94.6-21.1-45.5-4.8,17L71.7,327.7z"/>
		<path class="st2" d="M129.8,215.7c-16.7,15.7-31.2,6.2-30.8-7.1c0.7-21.2,11.8-43.6,23.6-60.7c7-10.2,25-28.3,35-20.4L182.1,20
			l-39-50.9L136-18.6c-17.1,29.5-32.3,60-45.6,91.3c-13.3,31.6-24.4,64.1-33.2,97.2l-40.2,150l70.3,22.7c0,0,23.2-24.8,30.1-40.3
			c11.5-26.1,20.8-53.1,27.8-80.8L129.8,215.7z"/>
		<path class="st1" d="M87.5,347.1c-0.5,0-0.9-0.1-1.4-0.2l-70.3-22.7c-2.3-0.7-3.6-3.1-2.9-5.4l40.2-150c8.8-33.3,20-66,33.4-97.8
			C99.7,39.4,115,8.8,132.1-20.9l7.1-12.3c1.2-2.1,4-2.9,6.1-1.6c0.5,0.3,1,0.7,1.3,1.1l39,50.9c0.8,1.1,1.1,2.4,0.8,3.7L162,128.5
			c-0.5,2.4-2.9,3.9-5.3,3.4c-0.2,0-0.3-0.1-0.5-0.1c-8.1-2.9-23.3,9.4-29.8,18.7c-8.2,11.9-22.1,35.2-22.8,58.3
			c-0.4,4.1,1.8,8,5.5,9.9c4.8,2.2,11.3-0.1,17.8-6.1c1.2-1.2,3-1.5,4.6-0.9l15.5,5.8c2.1,0.8,3.3,3,2.8,5.2
			c-7.1,27.9-16.5,55.2-28,81.6c-7.1,16-30,40.6-30.9,41.6C89.9,346.5,88.7,347.1,87.5,347.1z M22.5,317l63.6,20.5
			c5.6-6.2,22-24.9,27.4-37c10.8-24.7,19.7-50.2,26.6-76.2l-9.3-3.5c-8.6,7.2-17.8,9.4-25.5,5.9c-7-3.4-11.2-10.6-10.7-18.3
			c0.8-25.4,15.6-50.4,24.4-63.1c5.5-8,20.8-23,34.5-23c0.3,0,0.5,0,0.8,0l23.1-101.2l-33.7-43.9l-3.8,6.5
			c-17,29.3-32.1,59.6-45.3,90.8c-13.2,31.4-24.2,63.7-33,96.6L22.5,317z"/>
		<path class="st3" d="M-100.1-99.6l97.9,442.1l74-14.8L-4.8,17C-18.1-33.9-52.9-76.4-100.1-99.6z"/>
		<path class="st1" d="M-39.4,354.4c-2.1,0-4-1.5-4.4-3.6l-92.5-461.5c-0.5-2.4,1.1-4.8,3.5-5.3c0.7-0.1,1.4-0.1,2.1,0.1
			C-67-98.4-17.3-48.2-0.4,15.9l76.5,310.7c0.6,2.4-0.9,4.8-3.3,5.4c-0.1,0-0.1,0-0.2,0l-111.2,22.3
			C-38.8,354.4-39.1,354.4-39.4,354.4z M-126.1-105.2l90.2,449.9l102.2-20.5L-9.1,18.1C-24.5-40.3-68.6-86.8-126.1-105.2z"/>
		<path class="st4" d="M125.2,245.6l21.3-0.8c3.7,0.1,6.7-2.8,6.8-6.4c0-0.5,0-1-0.1-1.5l-3-21.1l21.3-0.8c3.7,0.1,6.7-2.8,6.8-6.4
			c0-0.5,0-1-0.1-1.5l-3-21.1l21.3-0.8c3.7,0.1,6.7-2.8,6.8-6.4c0-0.5,0-1-0.1-1.5l-3-21.1l21.3-0.8c3.7,0.1,6.7-2.8,6.8-6.4
			c0-0.5,0-1-0.1-1.5l-3-21.1l21.3-0.8c3.7,0.1,6.7-2.8,6.8-6.4c0-0.5,0-1-0.1-1.5l-3-21.1l23.2-2.2c5.1-0.5,7.6-5.1,5.5-10.3
			l-20-49.8L253.6,74l-20.5,0.7c-4-0.1-7.3,3.1-7.4,7.1c0,0.6,0,1.1,0.1,1.7l2.9,20.4l-20.5,0.7c-4-0.1-7.3,3.1-7.4,7.1
			c0,0.6,0,1.1,0.1,1.7l2.9,20.4l-20.5,0.7c-4-0.1-7.3,3.1-7.4,7.1c0,0.6,0,1.1,0.1,1.6l2.9,20.4l-20.5,0.7c-4-0.1-7.3,3.1-7.4,7.1
			c0,0.6,0,1.1,0.1,1.6l2.9,20.4l-20.5,0.7c-4-0.1-7.3,3.1-7.4,7.1c0,0.6,0,1.1,0.1,1.6l2.9,20.4l-29,1.1l-27.9,33.3l34.8,29.2
			L125.2,245.6z"/>
		<path class="st1" d="M106.5,291c-1,0-2.1-0.4-2.9-1l-34.8-29.2c-1.9-1.6-2.1-4.4-0.6-6.3c0,0,0,0,0,0l27.9-33.3
			c0.8-1,2-1.5,3.3-1.6l24.1-0.9l-2.2-15.5c-1.2-6.4,3.1-12.5,9.4-13.6c0.7-0.1,1.4-0.2,2.1-0.2l15.6-0.6l-2.2-15.5
			c-1.2-6.4,3.1-12.5,9.4-13.6c0.7-0.1,1.4-0.2,2.1-0.2l15.6-0.6l-2.2-15.5c-1.2-6.4,3.1-12.5,9.4-13.6c0.7-0.1,1.4-0.2,2.1-0.2
			l15.6-0.6l-2.2-15.5c-1.2-6.4,3.1-12.5,9.4-13.6c0.7-0.1,1.4-0.2,2.1-0.2l15.6-0.6l-2.2-15.5c-1.2-6.4,3.1-12.5,9.4-13.6
			c0.7-0.1,1.4-0.2,2.1-0.2l16.8-0.6l4.8-36.2c0.3-2.4,2.6-4.2,5-3.8c1.6,0.2,3,1.3,3.6,2.8l20,49.8c1.6,3.6,1.4,7.8-0.6,11.2
			c-1.9,3-5.1,4.9-8.6,5.2l-18.6,1.8l2.3,16.5c1.1,6-2.9,11.8-8.9,12.9c-0.7,0.1-1.3,0.2-2,0.2l-16.3,0.6l2.3,16.2
			c1.1,6-2.9,11.8-8.9,12.9c-0.7,0.1-1.3,0.2-2,0.2l-16.3,0.6l2.3,16.2c1.1,6-2.9,11.8-8.9,12.9c-0.7,0.1-1.3,0.2-2,0.2l-16.3,0.6
			l2.3,16.2c1.1,6-2.9,11.8-8.9,12.9c-0.7,0.1-1.3,0.2-2,0.2l-16.3,0.6l2.3,16.2c1.1,6-2.9,11.8-8.9,12.9c-0.7,0.1-1.3,0.2-2,0.2
			l-18.5,0.7l-17.6,38.5C109.8,290,108.3,291,106.5,291L106.5,291z M78,256.8l26.9,22.5l16.3-35.6c0.7-1.5,2.2-2.5,3.9-2.6l21.3-0.8
			c1.2,0.2,2.3-0.7,2.5-1.9c0-0.3,0-0.7-0.1-1l-2.9-21.1c-0.3-2.4,1.4-4.7,3.8-5c0.2,0,0.3,0,0.5,0l21.3-0.8
			c1.2,0.2,2.3-0.7,2.5-1.9c0-0.3,0-0.7-0.1-1l-3-21.1c-0.3-2.4,1.4-4.7,3.8-5c0.2,0,0.3,0,0.5,0l21.3-0.8c1.2,0.2,2.3-0.7,2.5-1.9
			c0-0.3,0-0.7-0.1-1l-3-21.1c-0.3-2.4,1.4-4.7,3.8-5c0.2,0,0.3,0,0.5,0l21.3-0.8c1.2,0.2,2.3-0.7,2.5-1.9c0-0.3,0-0.7-0.1-1
			l-3-21.1c-0.3-2.4,1.4-4.7,3.8-5c0.2,0,0.3,0,0.5,0l21.3-0.8c1.2,0.2,2.3-0.7,2.5-1.9c0-0.3,0-0.7-0.1-1l-3-21.1
			c-0.3-2.4,1.4-4.7,3.8-5c0.1,0,0.1,0,0.2,0l23.2-2.2c0.7,0,1.4-0.4,1.9-1c0.5-1.1,0.4-2.2-0.1-3.3l-13.6-34l-3.1,23
			c-0.3,2.2-2.1,3.8-4.3,3.9l-20.5,0.7c-1.6-0.2-3,0.9-3.1,2.5c0,0.4,0,0.8,0.1,1.1l2.9,20.4c0.3,2.4-1.4,4.7-3.8,5
			c-0.2,0-0.3,0-0.5,0l-20.5,0.7c-1.6-0.2-3,0.9-3.1,2.5c0,0.4,0,0.8,0.1,1.1l2.9,20.4c0.3,2.4-1.4,4.7-3.8,5c-0.2,0-0.3,0-0.5,0
			l-20.5,0.7c-1.6-0.2-3,0.9-3.1,2.5c0,0.4,0,0.8,0.1,1.1l2.9,20.4c0.3,2.4-1.4,4.7-3.8,5c-0.2,0-0.3,0-0.5,0l-20.5,0.7
			c-1.6-0.2-3,0.9-3.1,2.5c0,0.4,0,0.8,0.1,1.1l2.9,20.4c0.3,2.4-1.4,4.7-3.8,5c-0.2,0-0.3,0-0.5,0l-20.5,0.7
			c-1.6-0.2-3,0.9-3.1,2.5c0,0.4,0,0.8,0.1,1.1l2.8,20.4c0.3,2.4-1.4,4.7-3.8,5c-0.2,0-0.3,0-0.5,0l-27,1L78,256.8z"/>
		<path class="st5" d="M52.5,255.9h387.2c57.6,0,104.2,46.7,104.2,104.2l0,0c0,57.6-46.7,104.2-104.2,104.2H52.5
			c-57.6,0-104.2-46.7-104.2-104.2l0,0C-51.7,302.6-5.1,255.9,52.5,255.9z"/>
		<path class="st6" d="M439.7,440.5H52.5c-52.9,0-97.5-39.7-103.5-92.3c-0.5,4-0.7,8-0.7,12l0,0c0,57.6,46.7,104.2,104.2,104.2
			h387.2c57.6,0,104.2-46.7,104.2-104.2l0,0c0-4-0.2-8-0.7-12C537.1,400.8,492.6,440.5,439.7,440.5z"/>
		<path class="st7" d="M439.7,255.9H52.5c-57.6,0-104.2,46.7-104.2,104.2l0,0l0,0c0,3.7,0.2,7.5,0.6,11.2c5.7-52.9,50.4-93,103.6-93
			h387.2c53.2,0,97.9,40.1,103.6,93c0.4-3.7,0.6-7.5,0.6-11.2l0,0C543.9,302.6,497.2,255.9,439.7,255.9L439.7,255.9z"/>
		<path class="st1" d="M439.7,468.9H52.5c-60,0-108.7-48.7-108.7-108.7S-7.5,251.5,52.5,251.5h387.2c60,0,108.7,48.7,108.7,108.7
			S499.7,468.9,439.7,468.9z M52.5,260.4c-55.1,0-99.8,44.7-99.8,99.8s44.7,99.8,99.8,99.8h387.2c55.1,0,99.8-44.7,99.8-99.8
			s-44.7-99.8-99.8-99.8H52.5z"/>
		<path class="st1" d="M-8.7,247.6c-1.2,0-2.2-1-2.2-2.2c0-1,0.7-1.9,1.6-2.1l45.8-12.7c1.2-0.3,2.4,0.3,2.8,1.5
			c0.3,1.2-0.3,2.4-1.5,2.8c0,0,0,0-0.1,0l-45.8,12.7C-8.3,247.6-8.5,247.6-8.7,247.6z"/>
		<circle class="st2" cx="58.8" cy="360.2" r="37.5"/>
		<g class="st8">
			<path class="st1" d="M28.4,419.6c-0.8,0-1.5-0.2-2.2-0.6C4.9,407.2-8.4,384.6-8.4,360.2c0-14.5,4.6-28.6,13.3-40.1
				c1.5-2,4.3-2.3,6.3-0.8c1.9,1.5,2.3,4.2,0.9,6.2c-7.5,10-11.6,22.3-11.5,34.8c0,21.2,11.6,40.7,30.1,51c2.2,1.2,2.9,3.9,1.7,6.1
				C31.6,418.7,30.1,419.6,28.4,419.6L28.4,419.6z"/>
		</g>
		<path class="st1" d="M58.8,402.1c-23.2,0-41.9-18.8-41.9-41.9s18.8-41.9,41.9-41.9s41.9,18.8,41.9,41.9c0,0,0,0,0,0
			C100.7,383.3,82,402.1,58.8,402.1z M58.8,327.2c-18.2,0-33,14.8-33,33c0,18.2,14.8,33,33,33c18.2,0,33-14.8,33-33c0,0,0,0,0,0
			C91.8,341.9,77,327.2,58.8,327.2z"/>
		<path class="st1" d="M81.2,169c-0.2,0-0.3,0-0.4,0c-1.2-0.2-2-1.4-1.7-2.6c0,0,0,0,0,0c6.5-31.6,29.1-89.1,29.3-89.7
			c0.5-1.1,1.8-1.7,2.9-1.2c1.1,0.5,1.7,1.7,1.3,2.9c-0.2,0.6-22.7,57.8-29.1,89C83.2,168.2,82.3,169,81.2,169z"/>
		<path class="st1" d="M58.8,388.5c-2.5,0-4.5-2-4.5-4.5v-47.8c0-2.5,2-4.5,4.5-4.5s4.5,2,4.5,4.5v47.8
			C63.3,386.5,61.3,388.5,58.8,388.5z"/>
		<path class="st1" d="M82.7,364.6H34.9c-2.5,0-4.5-2-4.5-4.5c0-2.5,2-4.5,4.5-4.5h47.8c2.5,0,4.5,2,4.5,4.5
			C87.2,362.6,85.2,364.6,82.7,364.6z"/>
		<path class="st1" d="M-28.5,226.1c-1,0-2-0.7-2.2-1.8l-15.1-68c-0.3-1.2,0.5-2.4,1.7-2.7c1.2-0.3,2.4,0.5,2.7,1.7l15.1,68
			c0.3,1.2-0.5,2.4-1.7,2.7c0,0,0,0,0,0C-28.2,226.1-28.4,226.1-28.5,226.1z"/>
		<path class="st1" d="M-49.3,132.5c-1,0-2-0.7-2.2-1.8L-93.8-60.6c-0.3-1.2,0.5-2.4,1.7-2.7c1.2-0.3,2.4,0.5,2.7,1.7l0,0
			l42.4,191.4c0.3,1.2-0.5,2.4-1.7,2.7c0,0,0,0,0,0C-48.9,132.5-49.1,132.5-49.3,132.5z"/>
	</g>
</g>
</svg>
